<svg width="112" height="61" viewBox="0 0 112 61" fill="none" xmlns="http://www.w3.org/2000/svg">
<path d="M33.4741 16.6027C33.5279 15.9879 33.5245 15.3994 33.4638 14.8373C33.4117 14.2681 33.3028 13.7645 33.1372 13.3265C32.9723 12.8808 32.7451 12.5198 32.4556 12.2435C32.1739 11.9679 31.8345 11.8127 31.4376 11.778C30.994 11.7392 30.619 11.8122 30.3127 11.9972C30.0063 12.1821 29.7512 12.4539 29.5473 12.8125C29.3512 13.1718 29.1956 13.6052 29.0806 14.1127C28.9741 14.6131 28.895 15.1591 28.8432 15.7506C28.7894 16.3654 28.7978 16.9426 28.8682 17.482C28.9464 18.0221 29.0732 18.4998 29.2486 18.9151C29.4325 19.3233 29.6625 19.6532 29.9385 19.9048C30.2229 20.1493 30.5442 20.2872 30.9022 20.3185C31.338 20.3566 31.707 20.3066 32.0093 20.1683C32.3122 20.0223 32.5597 19.793 32.7518 19.4804C32.9523 19.1607 33.1087 18.7627 33.2209 18.2863C33.3339 17.8021 33.4182 17.2409 33.4741 16.6027ZM36.8523 16.3101C36.8067 16.8316 36.6881 17.3349 36.4967 17.82C36.313 18.3059 36.0734 18.7594 35.7777 19.1805C35.4821 19.6017 35.1347 19.9869 34.7355 20.3363C34.3448 20.6785 33.9196 20.9668 33.46 21.201C33.0003 21.4353 32.515 21.6046 32.0039 21.7089C31.4922 21.821 30.9717 21.8538 30.4425 21.8075C29.6175 21.7354 28.8826 21.5299 28.2378 21.1912C27.593 20.8524 27.0547 20.4171 26.6229 19.8853C26.191 19.3534 25.8763 18.7377 25.6787 18.0382C25.4811 17.3386 25.417 16.5919 25.4865 15.798C25.5314 15.2844 25.6379 14.7839 25.806 14.2967C25.9819 13.8102 26.2099 13.3557 26.49 12.9332C26.7707 12.5029 27.1026 12.1163 27.4855 11.7734C27.8691 11.4226 28.2907 11.1302 28.7504 10.8959C29.21 10.6616 29.7035 10.4891 30.2308 10.3784C30.7658 10.2684 31.3252 10.2389 31.9089 10.29C32.7261 10.3615 33.4571 10.5666 34.1019 10.9053C34.7467 11.2441 35.2847 11.6832 35.7159 12.2229C36.1478 12.7547 36.4625 13.3704 36.6601 14.07C36.8577 14.7696 36.9217 15.5163 36.8523 16.3101ZM48.6134 12.3043C48.6573 12.3395 48.6673 12.4502 48.6431 12.6363C48.6275 12.8153 48.5844 13.0389 48.5138 13.3073C48.4511 13.5762 48.3704 13.8711 48.2718 14.1919C48.1738 14.5048 48.0723 14.8136 47.9672 15.1181C47.8628 15.4148 47.7566 15.6878 47.6485 15.9372C47.5482 16.1872 47.4608 16.3795 47.3863 16.5142L46.4173 16.4294C46.429 16.1167 46.4167 15.8098 46.3803 15.5086C46.3446 15.1996 46.2824 14.9236 46.1939 14.6806C46.1132 14.4383 46.0011 14.2402 45.8577 14.0865C45.715 13.925 45.5424 13.8354 45.3401 13.8177C45.2 13.8055 45.043 13.8074 44.869 13.8236C44.7036 13.8326 44.5181 13.8909 44.3126 13.9984C44.1072 14.1059 43.8842 14.2785 43.6438 14.5163C43.4035 14.7541 43.1425 15.092 42.8611 15.5301L42.3994 20.8068C42.3892 20.9235 42.5421 21.0585 42.8581 21.2116C43.1819 21.3654 43.7048 21.5288 44.4268 21.7017L44.342 22.6707L37.5827 22.0793L37.6675 21.1104C38.6997 20.9654 39.2263 20.7723 39.2474 20.531L39.7704 14.5539C39.7928 14.297 39.8038 14.0823 39.8032 13.9097C39.8033 13.7294 39.7964 13.5837 39.7826 13.4727C39.7688 13.3617 39.7451 13.2734 39.7117 13.2077C39.686 13.1427 39.6593 13.0894 39.6316 13.0477C39.5819 12.9885 39.5311 12.9409 39.4794 12.905C39.4283 12.8614 39.3571 12.8238 39.2657 12.7922C39.1822 12.7614 39.0707 12.736 38.9313 12.7159C38.8003 12.6888 38.6266 12.6579 38.41 12.6233L38.4917 11.6893C38.9797 11.6693 39.3934 11.6467 39.7328 11.6215C40.08 11.5969 40.3961 11.5697 40.6811 11.5397C40.9667 11.502 41.2526 11.4603 41.539 11.4148C41.8259 11.3615 42.1571 11.2964 42.5324 11.2194L43.0118 11.7907L43.0441 13.1699C43.2767 12.9314 43.5352 12.7109 43.8195 12.5084C44.1123 12.2987 44.418 12.1215 44.7365 11.9769C45.0628 11.8329 45.3977 11.725 45.7412 11.6531C46.0847 11.5812 46.4238 11.5599 46.7585 11.5891C47.0698 11.6164 47.3883 11.6952 47.7141 11.8257C48.04 11.9561 48.3397 12.1157 48.6134 12.3043ZM48.7549 23.0568L48.8396 22.0878C49.3784 22.0252 49.7739 21.9421 50.026 21.8387C50.2789 21.7275 50.4101 21.6174 50.4196 21.5085L50.9262 15.7181C50.9609 15.3212 50.9849 15.0017 50.9983 14.7598C51.0201 14.5107 50.9939 14.3163 50.9199 14.1765C50.8465 14.0289 50.7075 13.9148 50.5028 13.8342C50.2981 13.7535 49.9913 13.6757 49.5822 13.6007L49.6639 12.6668C50.4036 12.6374 51.0864 12.5873 51.7121 12.5166C52.3385 12.4381 52.9482 12.3267 53.5412 12.1825L54.405 12.2581L53.5716 21.7842C53.5634 21.8776 53.6622 22.0039 53.8679 22.1631C54.082 22.3151 54.4683 22.4705 55.027 22.6291L54.9422 23.5981L48.7549 23.0568ZM55.1794 8.78505C55.1549 9.06523 55.0783 9.31341 54.9496 9.52957C54.8209 9.74574 54.6521 9.92703 54.4432 10.0734C54.2351 10.2121 53.9949 10.3126 53.7228 10.3751C53.4585 10.4382 53.1707 10.4562 52.8594 10.4289C52.6259 10.4085 52.4022 10.3654 52.1884 10.2997C51.983 10.2268 51.7995 10.1284 51.6378 10.0045C51.4768 9.87273 51.3532 9.71684 51.267 9.53676C51.1808 9.35669 51.1479 9.14991 51.1683 8.91643C51.1929 8.63625 51.2695 8.38808 51.3982 8.17191C51.5347 7.95642 51.707 7.77936 51.9152 7.64073C52.1234 7.5021 52.3596 7.40121 52.6239 7.33807C52.8961 7.27561 53.1839 7.25766 53.4874 7.28421C53.7131 7.30396 53.9325 7.35061 54.1457 7.42415C54.3595 7.48991 54.5434 7.58442 54.6973 7.70768C54.859 7.83162 54.9829 7.98362 55.0691 8.1637C55.1638 8.33667 55.2005 8.54379 55.1794 8.78505ZM63.7969 17.3147C63.8303 16.9333 63.8153 16.5673 63.7518 16.2167C63.6884 15.8661 63.5781 15.5584 63.4209 15.2937C63.2643 15.0212 63.0563 14.7991 62.7969 14.6274C62.5452 14.4564 62.2443 14.3556 61.894 14.3249C61.6995 14.3079 61.505 14.334 61.3108 14.4033C61.1165 14.4726 60.9337 14.5899 60.7624 14.7553C60.5995 14.9136 60.4598 15.1209 60.3433 15.3774C60.2267 15.6338 60.1528 15.9411 60.1215 16.2991C60.0874 16.6882 60.0943 17.0574 60.1422 17.4066C60.1985 17.7488 60.3014 18.0519 60.4509 18.3159C60.6081 18.5806 60.8164 18.7988 61.0759 18.9705C61.3353 19.1422 61.6518 19.2444 62.0254 19.2771C62.2511 19.2969 62.465 19.2724 62.6671 19.2039C62.8691 19.1353 63.0477 19.0215 63.2028 18.8625C63.3578 18.7036 63.4858 18.4952 63.5868 18.2374C63.6956 17.9802 63.7656 17.6727 63.7969 17.3147ZM62.055 24.8556C61.3011 24.6877 60.6158 24.4983 59.999 24.2875C59.6757 24.4867 59.4206 24.6683 59.2338 24.8323C59.054 25.0048 58.9152 25.1573 58.8173 25.2899C58.7187 25.4303 58.6523 25.5617 58.6181 25.6842C58.5916 25.8074 58.5736 25.9234 58.5641 26.0324C58.543 26.2737 58.6124 26.5111 58.7724 26.7447C58.9323 26.9782 59.1647 27.1907 59.4695 27.3821C59.7814 27.5819 60.155 27.7479 60.5905 27.8801C61.033 28.0208 61.5189 28.1143 62.0481 28.1606C62.484 28.1987 62.8584 28.1765 63.1715 28.0941C63.4916 28.0202 63.7568 27.9022 63.9671 27.7403C64.1766 27.5861 64.3341 27.3999 64.4394 27.1816C64.5519 26.9719 64.618 26.7542 64.6377 26.5285C64.6486 26.404 64.6291 26.2689 64.5791 26.1234C64.5284 25.9856 64.4115 25.8421 64.2285 25.6928C64.0527 25.5519 63.7908 25.4074 63.443 25.2594C63.1023 25.1198 62.6396 24.9852 62.055 24.8556ZM66.8741 17.1016C66.8217 17.7009 66.6414 18.238 66.3332 18.7129C66.0334 19.1808 65.6422 19.5739 65.1595 19.8925C64.6852 20.2039 64.1396 20.4345 63.5226 20.5845C62.9141 20.7273 62.2752 20.7694 61.6059 20.7108L61.4658 20.6986C61.1703 20.9394 60.9845 21.1349 60.9087 21.2851C60.8335 21.4275 60.7938 21.5221 60.7897 21.5688C60.7843 21.631 60.7944 21.6946 60.8201 21.7596C60.8542 21.8175 60.9503 21.8847 61.1083 21.9613C61.2663 22.0379 61.5096 22.1258 61.8381 22.2251C62.1751 22.3174 62.6437 22.4289 63.2439 22.5599C64.167 22.7661 64.9288 22.9778 65.5293 23.1951C66.1305 23.4045 66.5999 23.6416 66.9375 23.9064C67.2836 24.1641 67.513 24.4548 67.6259 24.7783C67.7465 25.1026 67.7884 25.4749 67.7517 25.8951C67.721 26.2453 67.6044 26.592 67.4019 26.935C67.1993 27.278 66.9356 27.6039 66.6105 27.9127C66.2848 28.2293 65.9067 28.5177 65.4761 28.7781C65.0455 29.0384 64.5833 29.2568 64.0895 29.4332C63.6028 29.618 63.0972 29.7502 62.5726 29.8298C62.0474 29.9172 61.5279 29.9384 61.0143 29.8934C60.594 29.8567 60.1567 29.791 59.7022 29.6963C59.2549 29.6101 58.8142 29.4931 58.3801 29.3454C57.9538 29.1983 57.5497 29.0218 57.1678 28.8158C56.7929 28.6183 56.4643 28.3857 56.1819 28.1179C55.9066 27.8585 55.6927 27.5692 55.5402 27.25C55.3949 26.9393 55.3389 26.5933 55.3723 26.2119C55.3886 26.0251 55.4481 25.8382 55.5507 25.6511C55.6534 25.464 55.8196 25.2668 56.0495 25.0595C56.2865 24.8607 56.5991 24.6488 56.9874 24.424C57.3834 24.1999 57.8794 23.9531 58.4755 23.6837C58.0624 23.475 57.7512 23.2674 57.5419 23.0609C57.3325 22.8544 57.236 22.6577 57.2523 22.4709C57.2687 22.2841 57.4742 21.9963 57.869 21.6073C58.2645 21.2106 58.883 20.7746 59.7245 20.2992C59.2917 20.1359 58.8974 19.9367 58.5416 19.7017C58.1942 19.4595 57.9004 19.1868 57.6603 18.8835C57.4287 18.573 57.2542 18.2362 57.137 17.8731C57.0282 17.5028 56.9919 17.1114 57.028 16.6989C57.0777 16.1308 57.2686 15.6064 57.6009 15.1257C57.9338 14.6372 58.3578 14.2273 58.873 13.896C59.3889 13.5568 59.9755 13.3062 60.6328 13.1441C61.2985 12.9749 61.9894 12.9217 62.7054 12.9843C63.2735 13.034 63.792 13.1578 64.261 13.3557C64.7383 13.5464 65.16 13.7912 65.526 14.0898C65.8414 14.0704 66.1539 14.0389 66.4636 13.9954C66.7739 13.9441 67.0687 13.8915 67.3479 13.8375C67.6278 13.7757 67.8836 13.7197 68.1155 13.6694C68.348 13.6113 68.5448 13.5579 68.7059 13.5093L69.0153 14.0069C68.9929 14.0834 68.949 14.1815 68.8836 14.3012C68.8267 14.4139 68.7613 14.5336 68.6875 14.6605C68.6137 14.7874 68.5359 14.9139 68.4543 15.0401C68.3734 15.1585 68.2977 15.2616 68.2273 15.3496C67.967 15.366 67.7029 15.3821 67.4349 15.3979C67.1675 15.4059 66.8736 15.4037 66.5532 15.3913C66.8196 15.9322 66.9265 16.5023 66.8741 17.1016ZM68.7877 24.8094L68.8725 23.8405C69.4113 23.7778 69.8067 23.6948 70.0589 23.5913C70.3117 23.4801 70.4429 23.3701 70.4524 23.2611L70.959 17.4707C70.9938 17.0738 71.0178 16.7544 71.0311 16.5124C71.0529 16.2634 71.0268 16.069 70.9527 15.9292C70.8794 15.7816 70.7404 15.6675 70.5357 15.5868C70.331 15.5062 70.0241 15.4283 69.615 15.3533L69.6967 14.4194C70.4365 14.39 71.1192 14.34 71.745 14.2692C72.3714 14.1907 72.9811 14.0794 73.574 13.9352L74.4379 14.0108L73.6045 23.5369C73.5963 23.6303 73.695 23.7565 73.9007 23.9157C74.1148 24.0678 74.5012 24.2231 75.0598 24.3818L74.975 25.3507L68.7877 24.8094ZM75.2123 10.5377C75.1878 10.8179 75.1112 11.0661 74.9825 11.2822C74.8538 11.4984 74.685 11.6797 74.4761 11.8261C74.2679 11.9647 74.0278 12.0653 73.7557 12.1277C73.4913 12.1909 73.2035 12.2088 72.8922 12.1816C72.6587 12.1612 72.4351 12.1181 72.2212 12.0523C72.0159 11.9794 71.8323 11.881 71.6707 11.7571C71.5097 11.6254 71.3861 11.4695 71.2999 11.2894C71.2137 11.1093 71.1808 10.9026 71.2012 10.6691C71.2257 10.3889 71.3023 10.1407 71.431 9.92456C71.5675 9.70907 71.7399 9.53201 71.948 9.39338C72.1562 9.25475 72.3925 9.15386 72.6568 9.09072C72.9289 9.02826 73.2167 9.01031 73.5203 9.03686C73.746 9.05661 73.9654 9.10325 74.1785 9.1768C74.3924 9.24256 74.5762 9.33707 74.7301 9.46033C74.8918 9.58427 75.0158 9.73627 75.102 9.91634C75.1966 10.0893 75.2334 10.2964 75.2123 10.5377ZM83.217 26.0718L83.3018 25.1029C83.8751 25.004 84.2793 24.91 84.5146 24.8208C84.7498 24.7316 84.8722 24.6325 84.8817 24.5235L85.3199 19.5153C85.356 19.1028 85.3668 18.7548 85.3524 18.4712C85.338 18.1876 85.2912 17.96 85.2122 17.7884C85.1415 17.6097 85.0353 17.4788 84.8936 17.3959C84.7603 17.3058 84.5847 17.2512 84.3668 17.2321C84.2034 17.2178 84.0269 17.2181 83.8374 17.2329C83.6563 17.2406 83.4495 17.2734 83.217 17.3315C82.993 17.3825 82.7309 17.4654 82.4306 17.5803C82.1304 17.6952 81.7837 17.8492 81.3903 18.0422L80.8541 24.1711C80.8439 24.2879 80.9579 24.4194 81.196 24.5657C81.442 24.7127 81.8131 24.8628 82.3095 25.016L82.2247 25.985L76.0374 25.4437L76.1222 24.4747C76.6474 24.3874 77.039 24.304 77.2969 24.2246C77.5554 24.1374 77.6905 24.0277 77.7021 23.8954L78.2506 17.6264C78.2771 17.3228 78.2904 17.0809 78.2905 16.9005C78.2984 16.7208 78.2601 16.5763 78.1755 16.467C78.0988 16.3583 77.9574 16.2714 77.7513 16.2063C77.5531 16.1419 77.2575 16.069 76.8647 15.9876L76.9464 15.0537C77.3545 15.0502 77.7357 15.0404 78.09 15.0243C78.4528 15.0012 78.7926 14.9721 79.1093 14.9371C79.4345 14.8949 79.7484 14.8479 80.051 14.7959C80.362 14.7369 80.674 14.6662 80.9871 14.5837L81.4665 15.155L81.4836 16.4388C82.0038 16.1392 82.4879 15.8953 82.9357 15.7071C83.3841 15.511 83.8052 15.3597 84.1988 15.2529C84.6002 15.1469 84.9706 15.0813 85.31 15.0561C85.6579 15.0238 85.9836 15.0209 86.2872 15.0474C86.6218 15.0767 86.94 15.1595 87.2418 15.2957C87.5436 15.4318 87.8003 15.6347 88.012 15.9042C88.2322 16.1665 88.3946 16.5062 88.4993 16.9232C88.6124 17.333 88.6435 17.8298 88.5924 18.4135L88.0337 24.7993C88.029 24.8538 88.0437 24.9099 88.0778 24.9678C88.1204 25.0186 88.1938 25.076 88.298 25.14C88.41 25.2047 88.5602 25.2806 88.7486 25.3677C88.9455 25.4476 89.1923 25.5398 89.4891 25.6442L89.4043 26.6131L83.217 26.0718ZM94.8444 25.2069C94.9612 25.2171 95.0906 25.2167 95.2327 25.2056C95.3749 25.1945 95.535 25.1575 95.713 25.0947C95.8995 25.0247 96.112 24.9257 96.3507 24.7976C96.5893 24.6694 96.8635 24.4935 97.1733 24.2696L97.3867 21.8297C96.9681 21.8637 96.6121 21.8992 96.3187 21.9362C96.0331 21.974 95.7899 22.0194 95.5892 22.0724C95.3892 22.1176 95.2196 22.1734 95.0805 22.2396C94.9492 22.3066 94.8327 22.3827 94.7312 22.4679C94.5111 22.6525 94.3293 22.8484 94.1857 23.0554C94.0421 23.2624 93.9563 23.5255 93.9284 23.8446C93.9066 24.0936 93.9236 24.3029 93.9794 24.4725C94.0351 24.642 94.1091 24.7818 94.2015 24.8919C94.2945 24.9941 94.3976 25.0698 94.511 25.1189C94.6321 25.1687 94.7433 25.1981 94.8444 25.2069ZM101.974 26.2776C101.627 26.4748 101.253 26.6656 100.853 26.8501C100.461 27.0276 100.079 27.1824 99.7066 27.3145C99.3421 27.4473 99.0114 27.5517 98.7146 27.6277C98.4178 27.7036 98.1915 27.7348 98.0359 27.7212C97.7401 27.6953 97.5011 27.5137 97.3189 27.1762C97.1374 26.8309 97.0478 26.3761 97.0501 25.8116C96.6693 26.1312 96.2896 26.3921 95.9112 26.5942C95.5405 26.7971 95.1817 26.9539 94.8348 27.0647C94.4957 27.1762 94.172 27.2459 93.8637 27.2738C93.5554 27.3018 93.2767 27.3048 93.0277 27.283C92.6852 27.2531 92.3557 27.1654 92.039 27.0201C91.7301 26.8754 91.4575 26.6751 91.2211 26.4192C90.9847 26.1632 90.8036 25.8572 90.6779 25.5012C90.5522 25.1451 90.5091 24.7414 90.5486 24.29C90.5929 23.7841 90.7241 23.3603 90.9422 23.0186C91.161 22.6692 91.4269 22.3631 91.7401 22.1003C91.9432 21.9299 92.1729 21.7696 92.4292 21.6195C92.6939 21.4623 93.0396 21.32 93.4664 21.1926C93.8932 21.0653 94.4286 20.9514 95.0726 20.8509C95.7166 20.7504 96.5238 20.668 97.494 20.6039L97.6073 19.3081C97.6278 19.0746 97.6231 18.8585 97.5935 18.6599C97.5723 18.4541 97.5133 18.2764 97.4166 18.1268C97.3277 17.9779 97.1971 17.8567 97.0249 17.7632C96.8534 17.6619 96.6353 17.5997 96.3707 17.5765C96.2073 17.5622 96.0369 17.5826 95.8596 17.6377C95.6907 17.6856 95.5346 17.7661 95.3914 17.8791C95.256 17.9927 95.1412 18.1395 95.047 18.3195C94.9613 18.4923 94.9199 18.6965 94.9229 18.9321C94.9266 18.9794 94.8511 19.0356 94.6964 19.1005C94.5424 19.1576 94.3449 19.2187 94.1039 19.2839C93.8714 19.342 93.6117 19.3977 93.3247 19.451C93.0455 19.505 92.7747 19.5519 92.5125 19.5917C92.2586 19.6244 92.0331 19.6478 91.8358 19.6619C91.6385 19.676 91.5094 19.6725 91.4485 19.6515L91.2286 18.9382C91.466 18.4649 91.8091 18.0401 92.2576 17.6637C92.7069 17.2795 93.225 16.9602 93.8119 16.7057C94.3995 16.4434 95.0316 16.2556 95.7081 16.1422C96.393 16.0218 97.0858 15.9922 97.7862 16.0535C98.3544 16.1032 98.8379 16.2239 99.2367 16.4157C99.6363 16.5996 99.9568 16.8355 100.198 17.1232C100.44 17.4032 100.608 17.7277 100.701 18.0966C100.795 18.4577 100.825 18.8367 100.79 19.2336L100.326 24.5337C100.298 24.8606 100.32 25.0978 100.393 25.2454C100.467 25.393 100.574 25.4729 100.714 25.4851C100.768 25.4899 100.823 25.4908 100.878 25.4878C100.933 25.4847 101.001 25.475 101.081 25.4584C101.16 25.4419 101.253 25.4186 101.357 25.3885C101.47 25.3514 101.607 25.3085 101.769 25.2598L101.974 26.2776ZM102.479 27.757L102.564 26.7881C102.904 26.7629 103.181 26.7322 103.396 26.6962C103.619 26.653 103.791 26.6092 103.913 26.565C104.043 26.5136 104.13 26.4585 104.174 26.3996C104.227 26.3414 104.255 26.2812 104.261 26.219L105.397 13.2373C105.427 12.8871 105.432 12.613 105.41 12.415C105.396 12.2177 105.338 12.0676 105.237 11.9647C105.137 11.854 104.987 11.7742 104.788 11.7254C104.597 11.6694 104.339 11.6077 104.016 11.5402L104.097 10.6063C104.53 10.5892 104.928 10.5691 105.291 10.546C105.662 10.5157 106.014 10.4799 106.347 10.4384C106.68 10.397 107.006 10.3432 107.326 10.277C107.645 10.2108 107.974 10.1298 108.312 10.0339L108.804 10.5945L107.413 26.4947C107.407 26.557 107.425 26.6213 107.467 26.6876C107.516 26.7469 107.601 26.8131 107.72 26.8862C107.839 26.9594 108.001 27.0363 108.205 27.1169C108.411 27.1898 108.671 27.2674 108.985 27.3498L108.9 28.3188L102.479 27.757Z" fill="#F6EEEE"/>
<path d="M24.4959 46.2891C23.6495 47.2396 22.8553 48.0013 22.1131 48.5742C21.3709 49.1341 20.6612 49.5638 19.9842 49.8633C19.3071 50.1628 18.656 50.3581 18.031 50.4492C17.4191 50.5404 16.8071 50.5859 16.1951 50.5859C15.1013 50.5859 14.0532 50.3776 13.0506 49.9609C12.048 49.5312 11.1625 48.9193 10.3943 48.125C9.63911 47.3307 9.03364 46.3607 8.57791 45.2148C8.12218 44.069 7.89432 42.7734 7.89432 41.3281C7.89432 39.9219 8.15473 38.6068 8.67557 37.3828C9.1964 36.1589 9.92557 35.0977 10.8631 34.1992C11.8136 33.2878 12.9464 32.5716 14.2615 32.0508C15.5766 31.5169 17.0349 31.25 18.6365 31.25C19.0662 31.25 19.5675 31.2891 20.1404 31.3672C20.7133 31.4323 21.2732 31.5365 21.8201 31.6797C22.38 31.8099 22.8943 31.9727 23.3631 32.168C23.8318 32.3503 24.1769 32.5586 24.3982 32.793C24.4112 32.8971 24.3917 33.099 24.3396 33.3984C24.2875 33.6849 24.2094 34.0234 24.1053 34.4141C24.0141 34.7917 23.9034 35.2018 23.7732 35.6445C23.643 36.0742 23.5128 36.4844 23.3826 36.875C23.2524 37.2656 23.1222 37.6107 22.992 37.9102C22.8748 38.2096 22.7771 38.418 22.699 38.5352L21.1951 38.3398C20.9477 37.5586 20.6938 36.888 20.4334 36.3281C20.173 35.7552 19.8865 35.2799 19.574 34.9023C19.2615 34.5247 18.9165 34.2448 18.5388 34.0625C18.1612 33.8802 17.7381 33.7891 17.2693 33.7891C16.7355 33.7891 16.2211 33.9128 15.7263 34.1602C15.2316 34.4076 14.7954 34.8047 14.4178 35.3516C14.0402 35.8984 13.7342 36.6146 13.4998 37.5C13.2784 38.3724 13.1678 39.4466 13.1678 40.7227C13.1678 41.7383 13.2849 42.6432 13.5193 43.4375C13.7667 44.2188 14.1053 44.8828 14.5349 45.4297C14.9777 45.9635 15.492 46.3737 16.0779 46.6602C16.6638 46.9336 17.3019 47.0703 17.992 47.0703C18.3566 47.0703 18.7146 47.0508 19.0662 47.0117C19.4178 46.9596 19.7954 46.8555 20.199 46.6992C20.6157 46.543 21.0714 46.3216 21.5662 46.0352C22.074 45.7487 22.6665 45.3711 23.3435 44.9023L24.4959 46.2891ZM39.7498 41.5039C39.7498 40.4753 39.6586 39.4987 39.4763 38.5742C39.3071 37.6367 39.0532 36.8164 38.7146 36.1133C38.3761 35.3971 37.9464 34.8307 37.4256 34.4141C36.9178 33.9974 36.3318 33.7891 35.6678 33.7891C34.9256 33.7891 34.3136 33.9648 33.8318 34.3164C33.35 34.668 32.9659 35.1562 32.6795 35.7812C32.406 36.4062 32.2107 37.1484 32.0935 38.0078C31.9894 38.8542 31.9373 39.7721 31.9373 40.7617C31.9373 41.7904 32.0349 42.7474 32.2303 43.6328C32.4386 44.5182 32.7185 45.293 33.0701 45.957C33.4347 46.6081 33.8644 47.1224 34.3592 47.5C34.867 47.8646 35.4204 48.0469 36.0193 48.0469C36.7485 48.0469 37.354 47.9102 37.8357 47.6367C38.3175 47.3503 38.6951 46.9336 38.9685 46.3867C39.255 45.8268 39.4568 45.1432 39.574 44.3359C39.6912 43.5156 39.7498 42.5716 39.7498 41.5039ZM45.3162 40.5273C45.3162 41.3997 45.1925 42.2526 44.9451 43.0859C44.7107 43.9193 44.3787 44.707 43.949 45.4492C43.5193 46.1914 42.9985 46.8815 42.3865 47.5195C41.7875 48.1445 41.1235 48.6849 40.3943 49.1406C39.6652 49.5964 38.8839 49.9479 38.0506 50.1953C37.2172 50.4557 36.3579 50.5859 35.4724 50.5859C34.0922 50.5859 32.8422 50.3516 31.7224 49.8828C30.6027 49.4141 29.6456 48.7695 28.8513 47.9492C28.0571 47.1289 27.4451 46.1523 27.0154 45.0195C26.5857 43.8867 26.3709 42.6562 26.3709 41.3281C26.3709 40.4688 26.475 39.6224 26.6834 38.7891C26.9047 37.9557 27.2172 37.168 27.6209 36.4258C28.0245 35.6706 28.5193 34.9805 29.1053 34.3555C29.6912 33.7174 30.3487 33.1706 31.0779 32.7148C31.8071 32.2591 32.6013 31.901 33.4607 31.6406C34.3331 31.3802 35.2576 31.25 36.2342 31.25C37.6013 31.25 38.8448 31.4844 39.9646 31.9531C41.0844 32.4219 42.0415 33.0729 42.8357 33.9062C43.63 34.7266 44.242 35.7031 44.6717 36.8359C45.1013 37.9688 45.3162 39.1992 45.3162 40.5273ZM66.781 33.457C66.3904 33.5482 66.0844 33.6328 65.8631 33.7109C65.6417 33.7891 65.4659 33.8802 65.3357 33.9844C65.2055 34.0755 65.1079 34.1862 65.0428 34.3164C64.9777 34.4466 64.906 34.6029 64.8279 34.7852L59.3006 48.2617C59.1834 48.5482 58.9946 48.8151 58.7342 49.0625C58.4868 49.3099 58.1938 49.5312 57.8553 49.7266C57.5297 49.9219 57.1782 50.0911 56.8006 50.2344C56.423 50.3776 56.0519 50.4948 55.6873 50.5859L48.656 34.7852C48.5779 34.6159 48.4868 34.4661 48.3826 34.3359C48.2915 34.1927 48.1743 34.069 48.031 33.9648C47.8878 33.8607 47.7055 33.7695 47.4842 33.6914C47.2758 33.6133 47.0089 33.5352 46.6834 33.457V31.8359H55.9803V33.457C55.4724 33.5221 55.0753 33.5938 54.7888 33.6719C54.5024 33.737 54.2941 33.8216 54.1638 33.9258C54.0467 34.0169 53.9946 34.1341 54.0076 34.2773C54.0206 34.4076 54.0727 34.5768 54.1638 34.7852L58.1482 43.7109L61.9178 34.7852C61.9959 34.5898 62.048 34.4271 62.074 34.2969C62.1 34.1536 62.061 34.0365 61.9568 33.9453C61.8657 33.8411 61.7029 33.7565 61.4685 33.6914C61.2342 33.6133 60.9021 33.5352 60.4724 33.457V31.8359H66.781V33.457ZM77.074 33.6914C76.4881 33.6914 75.9933 33.8086 75.5896 34.043C75.186 34.2643 74.8474 34.5898 74.574 35.0195C74.3136 35.4492 74.1118 35.9701 73.9685 36.582C73.8253 37.194 73.7277 37.8906 73.6756 38.6719H79.574C79.8735 38.6719 80.0688 38.6263 80.1599 38.5352C80.2641 38.431 80.3162 38.2422 80.3162 37.9688C80.3162 37.5651 80.2576 37.1159 80.1404 36.6211C80.0362 36.1263 79.854 35.6641 79.5935 35.2344C79.3461 34.7917 79.0141 34.4271 78.5974 34.1406C78.1808 33.8411 77.673 33.6914 77.074 33.6914ZM85.4724 39.3164C85.3553 39.4466 85.173 39.5964 84.9256 39.7656C84.6912 39.9219 84.4308 40.0781 84.1443 40.2344C83.8579 40.3906 83.5714 40.5404 83.2849 40.6836C82.9985 40.8268 82.7511 40.9375 82.5428 41.0156H73.6365C73.6756 41.9141 73.7993 42.7409 74.0076 43.4961C74.229 44.2383 74.5284 44.8763 74.906 45.4102C75.2967 45.931 75.7719 46.3411 76.3318 46.6406C76.8917 46.9271 77.5297 47.0703 78.2459 47.0703C78.6495 47.0703 79.0467 47.0508 79.4373 47.0117C79.8279 46.9596 80.2446 46.8555 80.6873 46.6992C81.143 46.543 81.6508 46.3151 82.2107 46.0156C82.7836 45.7161 83.4607 45.3125 84.242 44.8047C84.3201 44.8438 84.4178 44.9349 84.5349 45.0781C84.6521 45.2083 84.7628 45.3516 84.867 45.5078C84.9842 45.651 85.0883 45.7878 85.1795 45.918C85.2706 46.0482 85.3292 46.1393 85.3553 46.1914C84.4308 47.0898 83.604 47.8255 82.8748 48.3984C82.1456 48.9714 81.4425 49.4206 80.7654 49.7461C80.0883 50.0716 79.4047 50.293 78.7146 50.4102C78.0375 50.5273 77.2888 50.5859 76.4685 50.5859C75.3227 50.5859 74.242 50.3646 73.2263 49.9219C72.2237 49.4661 71.3448 48.8346 70.5896 48.0273C69.8474 47.207 69.255 46.2305 68.8123 45.0977C68.3826 43.9648 68.1678 42.7083 68.1678 41.3281C68.1678 39.5573 68.4868 38.0078 69.1248 36.6797C69.7758 35.3385 70.7654 34.1732 72.0935 33.1836C72.8227 32.6367 73.6821 32.181 74.6717 31.8164C75.6743 31.4388 76.7224 31.25 77.8162 31.25C79.0922 31.25 80.2055 31.4583 81.156 31.875C82.1196 32.2917 82.9204 32.8646 83.5584 33.5938C84.1964 34.3229 84.6717 35.1823 84.9842 36.1719C85.3097 37.1484 85.4724 38.1966 85.4724 39.3164ZM104.418 32.168C104.496 32.2201 104.528 32.4023 104.515 32.7148C104.515 33.0143 104.476 33.3919 104.398 33.8477C104.333 34.3034 104.242 34.8047 104.125 35.3516C104.008 35.8854 103.884 36.4128 103.754 36.9336C103.623 37.4414 103.487 37.9102 103.344 38.3398C103.213 38.7695 103.096 39.1016 102.992 39.3359H101.371C101.345 38.8151 101.28 38.3073 101.176 37.8125C101.071 37.3047 100.928 36.8555 100.746 36.4648C100.577 36.0742 100.362 35.7617 100.101 35.5273C99.8409 35.2799 99.5415 35.1562 99.2029 35.1562C98.9685 35.1562 98.7081 35.1823 98.4217 35.2344C98.1482 35.2734 97.8487 35.3971 97.5232 35.6055C97.1977 35.8138 96.8527 36.1328 96.4881 36.5625C96.1235 36.9922 95.7394 37.5911 95.3357 38.3594V47.1875C95.3357 47.3828 95.6092 47.5846 96.156 47.793C96.7159 48.0013 97.6079 48.1966 98.8318 48.3789V50H87.5232V48.3789C89.2159 47.9883 90.0623 47.5911 90.0623 47.1875V37.1875C90.0623 36.7578 90.0493 36.3997 90.0232 36.1133C89.9972 35.8138 89.9646 35.5729 89.9256 35.3906C89.8865 35.2083 89.8344 35.0651 89.7693 34.9609C89.7172 34.8568 89.6652 34.7721 89.6131 34.707C89.5219 34.6159 89.4308 34.5443 89.3396 34.4922C89.2485 34.4271 89.1248 34.375 88.9685 34.3359C88.8253 34.2969 88.6365 34.2708 88.4021 34.2578C88.1808 34.2318 87.8878 34.2057 87.5232 34.1797V32.6172C88.3305 32.513 89.0141 32.4154 89.574 32.3242C90.1469 32.2331 90.6678 32.1419 91.1365 32.0508C91.6053 31.9466 92.074 31.8359 92.5428 31.7188C93.0115 31.5885 93.5519 31.4323 94.1638 31.25L95.0428 32.1289L95.2967 34.4141C95.6482 33.9844 96.0454 33.5807 96.4881 33.2031C96.9438 32.8125 97.4256 32.474 97.9334 32.1875C98.4542 31.901 98.9946 31.6732 99.5545 31.5039C100.114 31.3346 100.674 31.25 101.234 31.25C101.755 31.25 102.295 31.3346 102.855 31.5039C103.415 31.6732 103.936 31.8945 104.418 32.168Z" fill="#F6EEEE"/>
<path d="M11.4626 26.417C11.0813 27.2566 10.7421 27.9035 10.4451 28.3576C10.148 28.8118 9.8799 29.1079 9.64084 29.2459C9.43335 29.3657 9.21371 29.4384 8.9819 29.464C8.75721 29.4915 8.52937 29.4667 8.2984 29.3895C8.06934 29.3053 7.8465 29.1693 7.62989 28.9816C7.41519 28.7868 7.2167 28.5316 7.0344 28.2158L4.9094 24.5352L4.10427 25.0001L3.74609 24.8641L3.89492 23.9031L4.38206 23.6218L3.61644 22.2957L4.52518 20.2916L4.9393 20.3683L6.20883 22.5672L8.21828 21.407L8.63449 21.5185C8.64077 21.6232 8.63838 21.7388 8.62732 21.8655C8.61816 21.985 8.60544 22.1036 8.58917 22.2213C8.5729 22.3389 8.55272 22.4498 8.52863 22.5539C8.50906 22.6554 8.48714 22.7373 8.46286 22.7994C8.39311 22.8036 8.30757 22.8169 8.20625 22.8393C8.10943 22.8591 8.0049 22.8864 7.89265 22.9211C7.77779 22.9513 7.66233 22.9909 7.54626 23.0399C7.4302 23.0889 7.32255 23.142 7.22332 23.1993L6.73618 23.4805L8.48618 26.5116C8.61378 26.7326 8.73539 26.912 8.85099 27.0498C8.9685 27.1804 9.07715 27.28 9.17695 27.3487C9.28125 27.4148 9.378 27.4521 9.46719 27.4608C9.55377 27.4649 9.63089 27.4475 9.69855 27.4084C9.77974 27.3615 9.85928 27.3066 9.93717 27.2436C10.0125 27.1761 10.0938 27.093 10.1812 26.9944C10.266 26.8913 10.3588 26.7656 10.4596 26.6172C10.5649 26.4662 10.6832 26.2806 10.8147 26.0604L11.4626 26.417ZM16.7157 24.8906L16.3915 24.3291C16.6668 24.0559 16.8516 23.8499 16.9459 23.7113C17.0403 23.5726 17.0692 23.4717 17.0328 23.4085L15.4351 20.6413C15.2763 20.3662 15.1312 20.1462 15 19.9814C14.8688 19.8166 14.7439 19.6993 14.6254 19.6294C14.5042 19.555 14.3846 19.5248 14.2664 19.5389C14.1502 19.5459 14.0266 19.5871 13.8958 19.6627C13.774 19.733 13.6636 19.8178 13.5646 19.9171C13.4674 20.0092 13.3713 20.1188 13.2763 20.2459C13.1786 20.3684 13.0798 20.5097 12.9797 20.6697C12.8797 20.8297 12.769 21.0078 12.6478 21.2041L14.6986 24.7562C14.7376 24.8238 14.8502 24.8521 15.0362 24.8409C15.2267 24.8272 15.4868 24.7672 15.8164 24.6611L16.1406 25.2227L12.5547 27.293L12.2305 26.7314C12.4839 26.4828 12.6659 26.2876 12.7764 26.1456C12.8843 25.9991 12.9161 25.8876 12.8718 25.8109L8.52024 18.2737C8.41086 18.0843 8.32171 17.9403 8.2528 17.8418C8.18128 17.7387 8.09927 17.6748 8.00678 17.65C7.9188 17.6227 7.80741 17.6328 7.6726 17.6806C7.5397 17.7212 7.35718 17.7905 7.12505 17.8885L6.81255 17.3472C7.06686 17.1523 7.29186 16.9743 7.48753 16.8132C7.6832 16.6521 7.86179 16.4979 8.02328 16.3505C8.18217 16.1986 8.33074 16.0497 8.46898 15.9037C8.60723 15.7578 8.74703 15.5989 8.88839 15.427L9.37826 15.5411L12.0814 20.2231C12.2543 19.8767 12.426 19.57 12.5967 19.3031C12.7719 19.0336 12.9478 18.7967 13.1246 18.5924C13.3013 18.3881 13.4775 18.2142 13.6533 18.0707C13.8264 17.9226 14.0009 17.7978 14.1768 17.6962C14.3708 17.5842 14.5762 17.5077 14.7931 17.4667C15.0099 17.4257 15.2277 17.4383 15.4464 17.5045C15.6669 17.5636 15.8855 17.687 16.1021 17.8747C16.3206 18.0552 16.5275 18.3146 16.7228 18.6529L18.8596 22.3538C18.8778 22.3854 18.9073 22.4105 18.9481 22.429C18.9908 22.4405 19.0528 22.4437 19.1342 22.4389C19.2201 22.4314 19.3311 22.4154 19.4673 22.3909C19.6054 22.3592 19.7754 22.3152 19.9774 22.2587L20.3016 22.8203L16.7157 24.8906ZM20.6664 15.0771C20.4634 15.1943 20.3154 15.3338 20.2225 15.4958C20.1269 15.6532 20.0748 15.8336 20.066 16.0372C20.0617 16.2381 20.096 16.4589 20.1687 16.6995C20.2415 16.9402 20.347 17.201 20.4852 17.4821L22.5285 16.3024C22.6322 16.2425 22.6908 16.1876 22.7041 16.1378C22.7194 16.0809 22.6997 16.0051 22.645 15.9104C22.5642 15.7705 22.4541 15.6267 22.3145 15.4787C22.1795 15.3281 22.0239 15.2045 21.8478 15.1077C21.6735 15.0038 21.4856 14.9439 21.2839 14.928C21.0797 14.9076 20.8739 14.9573 20.6664 15.0771ZM24.7007 15.346C24.6861 15.4145 24.6529 15.5028 24.6011 15.611C24.5511 15.712 24.4922 15.8182 24.4242 15.9296C24.3562 16.041 24.2869 16.1502 24.2163 16.2571C24.1458 16.364 24.0822 16.4518 24.0256 16.5205L20.9404 18.3018C21.1336 18.6052 21.3419 18.8669 21.5651 19.0868C21.7902 19.2997 22.0215 19.4608 22.2591 19.5702C22.4986 19.6725 22.7453 19.7195 22.9991 19.7113C23.2504 19.6985 23.5 19.6205 23.7481 19.4773C23.8879 19.3966 24.0216 19.3104 24.1491 19.2187C24.274 19.1226 24.3975 19.0031 24.5196 18.8605C24.6462 18.7152 24.7766 18.5347 24.9106 18.319C25.0492 18.1007 25.203 17.8254 25.3721 17.4933C25.407 17.4912 25.459 17.5032 25.5283 17.5294C25.5949 17.5511 25.6619 17.5785 25.7292 17.6118C25.7985 17.638 25.8619 17.6645 25.9195 17.6914C25.9771 17.7183 26.0156 17.7381 26.0351 17.751C25.8945 18.2471 25.7552 18.6673 25.6172 19.0116C25.4792 19.3559 25.3255 19.6521 25.156 19.9003C24.9866 20.1485 24.7941 20.3619 24.5785 20.5405C24.3673 20.7165 24.1197 20.8866 23.8355 21.0506C23.4386 21.2798 23.02 21.4193 22.5796 21.469C22.1411 21.5117 21.7104 21.4687 21.2873 21.3401C20.8661 21.2044 20.4656 20.9846 20.0857 20.6807C19.7103 20.3742 19.3845 19.9819 19.1085 19.5038C18.7543 18.8903 18.5549 18.2898 18.5103 17.7021C18.4676 17.1073 18.5774 16.5057 18.8395 15.8973C18.9827 15.562 19.1893 15.2323 19.4592 14.908C19.731 14.5767 20.0563 14.3017 20.4352 14.0829C20.8772 13.8277 21.3045 13.6772 21.7171 13.6315C22.1343 13.5831 22.5262 13.6214 22.8931 13.7464C23.2599 13.8714 23.5965 14.074 23.9026 14.3543C24.2107 14.6275 24.4767 14.9581 24.7007 15.346Z" fill="#F6EEEE"/>
</svg>
